<?xml version="1.0" encoding="UTF-8" standalone="no"?>
<svg
   id="Laag_1"
   data-name="Laag 1"
   width="60cm"
   height="30cm"
   viewBox="0 0 1700.7874 850.3937"
   version="1.1"
   sodipodi:docname="Baterij-houder-export.svg"
   inkscape:version="1.2 (dc2aedaf03, 2022-05-15)"
   xmlns:inkscape="http://www.inkscape.org/namespaces/inkscape"
   xmlns:sodipodi="http://sodipodi.sourceforge.net/DTD/sodipodi-0.dtd"
   xmlns="http://www.w3.org/2000/svg"
   xmlns:svg="http://www.w3.org/2000/svg"
   xmlns:rdf="http://www.w3.org/1999/02/22-rdf-syntax-ns#"
   xmlns:cc="http://creativecommons.org/ns#"
   xmlns:dc="http://purl.org/dc/elements/1.1/">
  <defs
     id="defs8" />
  <sodipodi:namedview
     id="namedview8"
     pagecolor="#ffffff"
     bordercolor="#000000"
     borderopacity="0.25"
     inkscape:showpageshadow="2"
     inkscape:pageopacity="0.0"
     inkscape:pagecheckerboard="0"
     inkscape:deskcolor="#d1d1d1"
     inkscape:document-units="cm"
     inkscape:zoom="0.45111651"
     inkscape:cx="782.50296"
     inkscape:cy="760.33574"
     inkscape:window-width="1512"
     inkscape:window-height="945"
     inkscape:window-x="0"
     inkscape:window-y="37"
     inkscape:window-maximized="0"
     inkscape:current-layer="Laag_1"
     showgrid="false" />
  <title
     id="title1">Baterij-houder-export</title>
  <circle
     cx="891.63776"
     cy="41.527561"
     r="12.75591"
     fill="none"
     stroke="#ff0000"
     stroke-miterlimit="10"
     stroke-width="0.283"
     id="circle1-2" />
  <circle
     cx="1234.3464"
     cy="41.527561"
     r="12.75591"
     fill="none"
     stroke="#ff0000"
     stroke-miterlimit="10"
     stroke-width="0.283"
     id="circle2-4" />
  <circle
     cx="891.63776"
     cy="381.68503"
     r="12.75591"
     fill="none"
     stroke="#ff0000"
     stroke-miterlimit="10"
     stroke-width="0.283"
     id="circle3-8" />
  <circle
     cx="1234.3464"
     cy="381.68503"
     r="12.75591"
     fill="none"
     stroke="#ff0000"
     stroke-miterlimit="10"
     stroke-width="0.283"
     id="circle4-3" />
  <circle
     cx="1316.5511"
     cy="41.527561"
     r="12.75591"
     fill="none"
     stroke="#ff0000"
     stroke-miterlimit="10"
     stroke-width="0.283"
     id="circle5-0" />
  <circle
     cx="1659.2598"
     cy="41.527561"
     r="12.75591"
     fill="none"
     stroke="#ff0000"
     stroke-miterlimit="10"
     stroke-width="0.283"
     id="circle6-5" />
  <circle
     cx="1316.5511"
     cy="381.68503"
     r="12.75591"
     fill="none"
     stroke="#ff0000"
     stroke-miterlimit="10"
     stroke-width="0.283"
     id="circle7-2" />
  <circle
     cx="1659.2598"
     cy="381.68503"
     r="12.75591"
     fill="none"
     stroke="#ff0000"
     stroke-miterlimit="10"
     stroke-width="0.283"
     id="circle8-2" />
  <rect
     x="0.7086615"
     y="0.42519686"
     width="424.91403"
     height="424.91403"
     rx="26.854187"
     fill="none"
     stroke="#ff0000"
     stroke-miterlimit="10"
     stroke-width="0.282812"
     id="rect1-0-3"
     ry="26.854187" />
  <circle
     cx="41.811028"
     cy="41.527561"
     r="12.75591"
     fill="none"
     stroke="#ff0000"
     stroke-miterlimit="10"
     stroke-width="0.283"
     id="circle1-2-9" />
  <circle
     cx="381.96851"
     cy="41.527561"
     r="12.75591"
     fill="none"
     stroke="#ff0000"
     stroke-miterlimit="10"
     stroke-width="0.283"
     id="circle2-4-9" />
  <circle
     cx="41.811028"
     cy="381.68503"
     r="12.75591"
     fill="none"
     stroke="#ff0000"
     stroke-miterlimit="10"
     stroke-width="0.283"
     id="circle3-8-7" />
  <circle
     cx="381.96851"
     cy="381.68503"
     r="12.75591"
     fill="none"
     stroke="#ff0000"
     stroke-miterlimit="10"
     stroke-width="0.283"
     id="circle4-3-0" />
  <path
     id="rect4-9-3"
     style="fill:none;stroke:#ff0000;stroke-width:0.282812;stroke-miterlimit:10"
     d="m 425.62236,27.279384 c 0,-14.87722 11.97696,-26.85418714 26.85418,-26.85418714 H 823.6822 c 14.87722,0 26.85419,11.97696714 26.85419,26.85418714 V 398.48504 c 0,14.87722 -11.97697,26.85419 -26.85419,26.85419 H 452.47654 c -14.87722,0 -26.85418,-11.97697 -26.85418,-26.85419"
     sodipodi:nodetypes="cssssssc" />
  <circle
     cx="467.00787"
     cy="41.527561"
     r="12.75591"
     fill="none"
     stroke="#ff0000"
     stroke-miterlimit="10"
     stroke-width="0.283"
     id="circle5-0-9" />
  <circle
     cx="809.43304"
     cy="41.527561"
     r="12.75591"
     fill="none"
     stroke="#ff0000"
     stroke-miterlimit="10"
     stroke-width="0.283"
     id="circle6-5-8" />
  <circle
     cx="467.00787"
     cy="381.68503"
     r="12.75591"
     fill="none"
     stroke="#ff0000"
     stroke-miterlimit="10"
     stroke-width="0.283"
     id="circle7-2-6" />
  <circle
     cx="809.43304"
     cy="381.68503"
     r="12.75591"
     fill="none"
     stroke="#ff0000"
     stroke-miterlimit="10"
     stroke-width="0.283"
     id="circle8-2-5" />
  <path
     id="rect4-9-3-1"
     style="fill:none;stroke:#ff0000;stroke-width:0.282812;stroke-miterlimit:10"
     d="m 823.6822,425.3389 c 14.87723,0 26.8542,11.97698 26.8542,26.85419 v 371.20566 c 0,14.87721 -11.97697,26.85419 -26.8542,26.85419 H 452.47655 c -14.87721,0 -26.85419,-11.97698 -26.85419,-26.85419 m 0,-371.20566 c 0,-14.87721 11.97698,-26.85419 26.85419,-26.85419"
     sodipodi:nodetypes="cssssccc" />
  <ellipse
     cx="467.00787"
     cy="466.7244"
     fill="none"
     stroke="#ff0000"
     stroke-miterlimit="10"
     stroke-width="0.282906"
     id="circle5-0-9-4"
     rx="12.755905"
     ry="12.755913" />
  <ellipse
     cx="809.43304"
     cy="466.7244"
     fill="none"
     stroke="#ff0000"
     stroke-miterlimit="10"
     stroke-width="0.282906"
     id="circle6-5-8-7"
     rx="12.755905"
     ry="12.755913" />
  <ellipse
     cx="467.00787"
     cy="809.1496"
     fill="none"
     stroke="#ff0000"
     stroke-miterlimit="10"
     stroke-width="0.282906"
     id="circle7-2-6-1"
     rx="12.755905"
     ry="12.755913" />
  <ellipse
     cx="809.43304"
     cy="809.1496"
     fill="none"
     stroke="#ff0000"
     stroke-miterlimit="10"
     stroke-width="0.282906"
     id="circle8-2-5-3"
     rx="12.755905"
     ry="12.755913" />
  <path
     id="rect4-9-3-1-0"
     style="fill:none;stroke:#ff0000;stroke-width:0.282812;stroke-miterlimit:10"
     d="m 398.76849,425.3389 c 14.87723,0 26.8542,11.97698 26.8542,26.85419 v 371.20566 c 0,14.87721 -11.97697,26.85419 -26.8542,26.85419 H 27.562849 c -14.877218,0 -26.85418759,-11.97698 -26.85418759,-26.85419 V 452.19309 c 0,-14.87721 11.97696959,-26.85419 26.85418759,-26.85419"
     sodipodi:nodetypes="cssssssc" />
  <circle
     cx="41.811024"
     cy="466.7244"
     fill="none"
     stroke="#ff0000"
     stroke-miterlimit="10"
     stroke-width="0.282812"
     id="circle5-0-9-4-2"
     r="12.755905" />
  <circle
     cx="381.96851"
     cy="466.7244"
     fill="none"
     stroke="#ff0000"
     stroke-miterlimit="10"
     stroke-width="0.282812"
     id="circle6-5-8-7-4"
     r="12.755905" />
  <circle
     cx="41.811024"
     cy="809.1496"
     fill="none"
     stroke="#ff0000"
     stroke-miterlimit="10"
     stroke-width="0.282812"
     id="circle7-2-6-1-8"
     r="12.755905" />
  <circle
     cx="381.96851"
     cy="809.1496"
     fill="none"
     stroke="#ff0000"
     stroke-miterlimit="10"
     stroke-width="0.282812"
     id="circle8-2-5-3-3"
     r="12.755905" />
  <path
     id="rect4-9-3-1-9"
     style="fill:none;stroke:#ff0000;stroke-width:0.282812;stroke-miterlimit:10"
     d="m 1248.5957,425.3389 c 14.8772,0 26.8541,11.97698 26.8541,26.85419 v 371.20566 c 0,14.87722 -11.9769,26.85419 -26.8541,26.85419 H 877.38995 c -14.87722,0 -26.8542,-11.97697 -26.8542,-26.85419 m 0,-371.20566 c 0,-14.87721 11.97698,-26.85419 26.8542,-26.85419"
     sodipodi:nodetypes="cssssccc" />
  <circle
     cx="891.63776"
     cy="466.7244"
     r="12.75591"
     fill="none"
     stroke="#ff0000"
     stroke-miterlimit="10"
     stroke-width="0.283"
     id="circle5-0-9-4-0" />
  <circle
     cx="1234.3464"
     cy="466.7244"
     r="12.75591"
     fill="none"
     stroke="#ff0000"
     stroke-miterlimit="10"
     stroke-width="0.283"
     id="circle6-5-8-7-5" />
  <circle
     cx="891.63776"
     cy="809.1496"
     r="12.75591"
     fill="none"
     stroke="#ff0000"
     stroke-miterlimit="10"
     stroke-width="0.283"
     id="circle7-2-6-1-2" />
  <circle
     cx="1234.3464"
     cy="809.1496"
     r="12.75591"
     fill="none"
     stroke="#ff0000"
     stroke-miterlimit="10"
     stroke-width="0.283"
     id="circle8-2-5-3-2" />
  <path
     id="rect4-9-3-1-7"
     style="fill:none;stroke:#ff0000;stroke-width:0.282812;stroke-miterlimit:10"
     d="m 1673.509,425.3389 c 14.8772,0 26.8541,11.97698 26.8541,26.85419 v 371.20566 c 0,14.87721 -11.9769,26.85419 -26.8541,26.85419 h -371.2056 c -14.8773,0 -26.8542,-11.97698 -26.8542,-26.85419 m 0,-371.20566 c 0,-14.87721 11.9769,-26.85419 26.8542,-26.85419"
     sodipodi:nodetypes="cssssccc" />
  <circle
     cx="1316.5511"
     cy="466.7244"
     fill="none"
     stroke="#ff0000"
     stroke-miterlimit="10"
     stroke-width="0.282812"
     id="circle5-0-9-4-3"
     r="12.755905" />
  <circle
     cx="1659.2598"
     cy="466.7244"
     fill="none"
     stroke="#ff0000"
     stroke-miterlimit="10"
     stroke-width="0.282812"
     id="circle6-5-8-7-7"
     r="12.755905" />
  <circle
     cx="1316.5511"
     cy="809.1496"
     fill="none"
     stroke="#ff0000"
     stroke-miterlimit="10"
     stroke-width="0.282812"
     id="circle7-2-6-1-9"
     r="12.755905" />
  <circle
     cx="1659.2598"
     cy="809.1496"
     fill="none"
     stroke="#ff0000"
     stroke-miterlimit="10"
     stroke-width="0.282812"
     id="circle8-2-5-3-0"
     r="12.755905" />
  <metadata
     id="metadata219">
    <rdf:RDF>
      <cc:Work
         rdf:about="">
        <dc:title>Baterij-houder-export</dc:title>
      </cc:Work>
    </rdf:RDF>
  </metadata>
  <path
     id="rect4-9-3-4"
     style="fill:none;stroke:#ff0000;stroke-width:0.282812;stroke-miterlimit:10"
     d="m 850.53575,27.279703 c 0,-14.87722 11.97696,-26.85417986 26.85418,-26.85417986 h 371.20567 c 14.8772,0 26.8542,11.97695986 26.8542,26.85417986 V 398.48536 c 0,14.87722 -11.977,26.85419 -26.8542,26.85419 H 877.38993 c -14.87722,0 -26.85418,-11.97697 -26.85418,-26.85419"
     sodipodi:nodetypes="cssssssc" />
  <path
     id="rect4-9-3-4-4"
     style="fill:none;stroke:#ff0000;stroke-width:0.282812;stroke-miterlimit:10"
     d="m 1275.4492,27.279703 c 0,-14.87722 11.9769,-26.85417986 26.8541,-26.85417986 h 371.2051 c 14.8772,0 26.8542,11.97695986 26.8542,26.85417986 V 398.48536 c 0,14.87722 -11.977,26.85419 -26.8542,26.85419 h -371.2051 c -14.8772,0 -26.8541,-11.97697 -26.8541,-26.85419"
     sodipodi:nodetypes="cssssssc" />
</svg>
