<svg id="Laag_1" data-name="Laag 1" xmlns="http://www.w3.org/2000/svg" width="60cm" height="30cm" viewBox="0 0 1700.7874 850.3937">
  <title>Box-pilars</title>
  <path id="front_outsideCutPath" data-name="front outsideCutPath" d="M651.96847,14.08369h-43.937v8.50394H548.50391V14.08369H488.97635v8.50394H429.4488V14.08369H369.92124v8.50394H310.39368V14.08369H250.86613v8.50394H191.33857V14.08369H131.811v8.50394H72.28346V14.08369h-43.937V55.18605H53.85827v59.52756H28.34646V155.816h43.937V147.312H131.811V155.816h59.52755V147.312h59.52756V155.816h59.52755V147.312h59.52756V155.816H429.4488V147.312h59.52755V155.816h59.52756V147.312h59.52755V155.816h43.937V114.71361h0V55.18605h0Z" fill="none" stroke="#e42320" stroke-miterlimit="10" stroke-width="0.28346"/>
  <path id="front_outsideCutPath-2" data-name="front outsideCutPath" d="M1309.725,18.08369h-43.937v8.50394h-59.52755V18.08369h-59.52756v8.50394h-59.52755V18.08369h-59.52756v8.50394H968.15021V18.08369H908.62265v8.50394H849.09509V18.08369H789.56754v8.50394H730.04V18.08369H686.103V59.18605h25.51181v59.52756H686.103V159.816H730.04V151.312h59.52756V159.816h59.52755V151.312h59.52756V159.816h59.52756V151.312h59.52755V159.816h59.52756V151.312h59.52755V159.816h59.52756V151.312H1265.788V159.816h43.937V118.71361h0V59.18605h0Z" fill="none" stroke="#e42320" stroke-miterlimit="10" stroke-width="0.28346"/>
  <path id="left_outsideCutPath" data-name="left outsideCutPath" d="M1309.725,176.82384h-43.58267v-8.50393H1205.9061v8.50393h-58.8189v-8.50393H1086.851v8.50393h-58.8189v-8.50393H967.79588v8.50393H908.977v-8.50393H848.74076v8.50393H789.92187v-8.50393H729.68565v8.50393H686.103v32.59843h25.51181v59.52755H686.103v32.59843h43.58267v8.50393h60.23622v-8.50393h58.81889v8.50393H908.977v-8.50393h58.8189v8.50393h60.02361v-8.50393h59.24409v8.50393h59.811v-8.50393h59.03149v8.50393h60.23622v-8.50393H1309.725V268.94982h0V209.42227h0Z" fill="none" stroke="#e42320" stroke-miterlimit="10" stroke-width="0.28346"/>
  <path id="left_outsideCutPath-2" data-name="left outsideCutPath" d="M651.725,172.82384H608.14232v-8.50393H547.9061v8.50393H489.0872v-8.50393H428.851v8.50393h-58.8189v-8.50393H309.79588v8.50393H250.977v-8.50393H190.74076v8.50393H131.92187v-8.50393H71.68565v8.50393H28.103v32.59843H53.61479v59.52755H28.103v32.59843H71.68565v8.50393h60.23622v-8.50393h58.81889v8.50393H250.977v-8.50393h58.8189v8.50393h60.02361v-8.50393h59.24409v8.50393h59.811v-8.50393H547.9061v8.50393h60.23622v-8.50393H651.725V264.94982h0V205.42227h0Z" fill="none" stroke="#e42320" stroke-miterlimit="10" stroke-width="0.28346"/>
  <path id="left_outsideCutPath-3" data-name="left outsideCutPath" d="M1309.725,326.82384h-43.58267v-8.50393H1205.9061v8.50393h-58.8189v-8.50393H1086.851v8.50393h-58.8189v-8.50393H967.79588v8.50393H908.977v-8.50393H848.74076v8.50393H789.92187v-8.50393H729.68565v8.50393H686.103v32.59843h25.51181v59.52755H686.103v32.59843h43.58267v8.50393h60.23622v-8.50393h58.81889v8.50393H908.977v-8.50393h58.8189v8.50393h60.02361v-8.50393h59.24409v8.50393h59.811v-8.50393h59.03149v8.50393h60.23622v-8.50393H1309.725V418.94982h0V359.42227h0Z" fill="none" stroke="#e42320" stroke-miterlimit="10" stroke-width="0.28346"/>
  <path id="left_outsideCutPath-4" data-name="left outsideCutPath" d="M1309.725,486.82384h-43.58267v-8.50393H1205.9061v8.50393h-58.8189v-8.50393H1086.851v8.50393h-58.8189v-8.50393H967.79588v8.50393H908.977v-8.50393H848.74076v8.50393H789.92187v-8.50393H729.68565v8.50393H686.103v32.59843h25.51181v59.52755H686.103v32.59843h43.58267v8.50393h60.23622v-8.50393h58.81889v8.50393H908.977v-8.50393h58.8189v8.50393h60.02361v-8.50393h59.24409v8.50393h59.811v-8.50393h59.03149v8.50393h60.23622v-8.50393H1309.725V578.94982h0V519.42227h0Z" fill="none" stroke="#e42320" stroke-miterlimit="10" stroke-width="0.28346"/>
  <g>
    <polygon points="429.449 322.588 429.449 314.084 369.921 314.084 369.921 322.588 310.394 322.588 310.394 314.084 250.866 314.084 250.866 322.588 191.339 322.588 191.339 314.084 131.811 314.084 131.811 322.588 72.283 322.588 72.283 314.084 28.346 314.084 28.346 355.186 53.858 355.186 53.858 414.714 28.346 414.714 28.346 455.816 72.283 455.816 72.283 447.312 131.811 447.312 131.811 455.816 191.339 455.816 191.339 447.312 250.866 447.312 250.866 455.816 310.394 455.816 310.394 447.312 369.921 447.312 369.921 455.816 429.449 455.816 429.449 447.312 439 447.312 439 322.588 429.449 322.588" fill="none" stroke="#e42320" stroke-miterlimit="10" stroke-width="0.28346"/>
    <polygon points="608.031 314.084 608.031 322.588 548.504 322.588 548.504 314.084 488.976 314.084 488.976 322.588 473 322.588 473 447.312 488.976 447.312 488.976 455.816 548.504 455.816 548.504 447.312 608.031 447.312 608.031 455.816 615 455.816 615 314.084 608.031 314.084" fill="none" stroke="#e42320" stroke-miterlimit="10" stroke-width="0.28346"/>
  </g>
  <g>
    <polygon points="429.449 481.588 429.449 473.084 369.921 473.084 369.921 481.588 310.394 481.588 310.394 473.084 250.866 473.084 250.866 481.588 191.339 481.588 191.339 473.084 131.811 473.084 131.811 481.588 72.283 481.588 72.283 473.084 28.346 473.084 28.346 514.186 53.858 514.186 53.858 573.714 28.346 573.714 28.346 614.816 72.283 614.816 72.283 606.312 131.811 606.312 131.811 614.816 191.339 614.816 191.339 606.312 250.866 606.312 250.866 614.816 310.394 614.816 310.394 606.312 369.921 606.312 369.921 614.816 429.449 614.816 429.449 606.312 439 606.312 439 481.588 429.449 481.588" fill="none" stroke="#e42320" stroke-miterlimit="10" stroke-width="0.28346"/>
    <polygon points="608.031 473.084 608.031 481.588 548.504 481.588 548.504 473.084 488.976 473.084 488.976 481.588 473 481.588 473 606.312 488.976 606.312 488.976 614.816 548.504 614.816 548.504 606.312 608.031 606.312 608.031 614.816 615 614.816 615 473.084 608.031 473.084" fill="none" stroke="#e42320" stroke-miterlimit="10" stroke-width="0.28346"/>
  </g>
</svg>
