<svg id="Laag_1" data-name="Laag 1" xmlns="http://www.w3.org/2000/svg" width="60cm" height="30cm" viewBox="0 0 1700.7874 850.3937">
  <title>Box-pilars</title>
  <path id="front_outsideCutPath" data-name="front outsideCutPath" d="M651.96847,14.08369h-43.937v8.50394H548.50391V14.08369H488.97635v8.50394H429.4488V14.08369H369.92124v8.50394H310.39368V14.08369H250.86613v8.50394H191.33857V14.08369H131.811v8.50394H72.28346V14.08369h-43.937V55.18605h8.50393v59.52756H28.34646V155.816h43.937V147.312H131.811V155.816h59.52755V147.312h59.52756V155.816h59.52755V147.312h59.52756V155.816H429.4488V147.312h59.52755V155.816h59.52756V147.312h59.52755V155.816h43.937V114.71361h-8.50394V55.18605h8.50394Z" fill="none" stroke="#e42320" stroke-miterlimit="10" stroke-width="0.28346"/>
  <path id="left_outsideCutPath" data-name="left outsideCutPath" d="M651.96847,172.82384h-43.937v-8.50393H548.50391v8.50393H488.97635v-8.50393H429.4488v8.50393H369.92124v-8.50393H310.39368v8.50393H250.86613v-8.50393H191.33857v8.50393H131.811v-8.50393H72.28346v8.50393h-43.937v32.59843h8.50393v59.52755H28.34646v32.59843h43.937v8.50393H131.811v-8.50393h59.52755v8.50393h59.52756v-8.50393h59.52755v8.50393h59.52756v-8.50393H429.4488v8.50393h59.52755v-8.50393h59.52756v8.50393h59.52755v-8.50393h43.937V264.94982h-8.50394V205.42227h8.50394Z" fill="none" stroke="#e42320" stroke-miterlimit="10" stroke-width="0.28346"/>
  <path id="front_outsideCutPath-2" data-name="front outsideCutPath" d="M1309.725,18.08369h-43.937v8.50394h-59.52755V18.08369h-59.52756v8.50394h-59.52755V18.08369h-59.52756v8.50394H968.15021V18.08369H908.62265v8.50394H849.09509V18.08369H789.56754v8.50394H730.04V18.08369H686.103V59.18605h8.50393v59.52756H686.103V159.816H730.04V151.312h59.52756V159.816h59.52755V151.312h59.52756V159.816h59.52756V151.312h59.52755V159.816h59.52756V151.312h59.52755V159.816h59.52756V151.312H1265.788V159.816h43.937V118.71361h-8.50394V59.18605h8.50394Z" fill="none" stroke="#e42320" stroke-miterlimit="10" stroke-width="0.28346"/>
  <path id="left_outsideCutPath-2" data-name="left outsideCutPath" d="M1309.725,176.82384h-43.937v-8.50393h-59.52755v8.50393h-59.52756v-8.50393h-59.52755v8.50393h-59.52756v-8.50393H968.15021v8.50393H908.62265v-8.50393H849.09509v8.50393H789.56754v-8.50393H730.04v8.50393H686.103v32.59843h8.50393v59.52755H686.103v32.59843H730.04v8.50393h59.52756v-8.50393h59.52755v8.50393h59.52756v-8.50393h59.52756v8.50393h59.52755v-8.50393h59.52756v8.50393h59.52755v-8.50393h59.52756v8.50393H1265.788v-8.50393h43.937V268.94982h-8.50394V209.42227h8.50394Z" fill="none" stroke="#e42320" stroke-miterlimit="10" stroke-width="0.28346"/>
  <path id="back_outsideCutPath" data-name="back outsideCutPath" d="M1309.85094,318.08369h-43.937v8.50394h-59.52755v-8.50394h-59.52756v8.50394h-59.52755v-8.50394h-59.52756v8.50394H968.27615v-8.50394H908.7486v8.50394H849.221v-8.50394H789.69349v8.50394H730.16593v-8.50394h-43.937v41.10236h8.50393v59.52756h-8.50393V459.816h43.937V451.312h59.52756V459.816H849.221V451.312H908.7486V459.816h59.52755V451.312h59.52756V459.816h59.52756V451.312h59.52755V459.816h59.52756V451.312h59.52755V459.816h43.937V418.71361H1301.347V359.18605h8.50394Z" fill="none" stroke="#e42320" stroke-miterlimit="10" stroke-width="0.28346"/>
  <g>
    <rect x="13.15748" y="638.29941" width="1190.55118" height="170.07874" fill="none" stroke="#e42320" stroke-miterlimit="10" stroke-width="0.28346"/>
    <polygon points="160.559 785.701 127.961 785.701 127.961 794.205 169.063 794.205 169.063 753.103 160.559 753.103 160.559 785.701" fill="none" stroke="#e42320" stroke-miterlimit="10" stroke-width="0.28346"/>
    <polygon points="35.835 785.701 35.835 753.103 27.331 753.103 27.331 794.205 68.433 794.205 68.433 785.701 35.835 785.701" fill="none" stroke="#e42320" stroke-miterlimit="10" stroke-width="0.28346"/>
    <polygon points="35.835 660.977 68.433 660.977 68.433 652.473 27.331 652.473 27.331 693.575 35.835 693.575 35.835 660.977" fill="none" stroke="#e42320" stroke-miterlimit="10" stroke-width="0.28346"/>
    <polygon points="127.961 652.473 127.961 660.977 160.559 660.977 160.559 693.575 169.063 693.575 169.063 652.473 127.961 652.473" fill="none" stroke="#e42320" stroke-miterlimit="10" stroke-width="0.28346"/>
    <g>
      <polygon points="1181.031 785.701 1148.433 785.701 1148.433 794.205 1189.535 794.205 1189.535 753.103 1181.031 753.103 1181.031 785.701" fill="none" stroke="#e42320" stroke-miterlimit="10" stroke-width="0.28346"/>
      <polygon points="1056.307 785.701 1056.307 753.103 1047.803 753.103 1047.803 794.205 1088.906 794.205 1088.906 785.701 1056.307 785.701" fill="none" stroke="#e42320" stroke-miterlimit="10" stroke-width="0.28346"/>
      <polygon points="1056.307 660.977 1088.906 660.977 1088.906 652.473 1047.803 652.473 1047.803 693.575 1056.307 693.575 1056.307 660.977" fill="none" stroke="#e42320" stroke-miterlimit="10" stroke-width="0.28346"/>
      <polygon points="1148.433 652.473 1148.433 660.977 1181.031 660.977 1181.031 693.575 1189.535 693.575 1189.535 652.473 1148.433 652.473" fill="none" stroke="#e42320" stroke-miterlimit="10" stroke-width="0.28346"/>
    </g>
  </g>
  <g>
    <polygon points="429.449 322.588 429.449 314.084 369.921 314.084 369.921 322.588 310.394 322.588 310.394 314.084 250.866 314.084 250.866 322.588 191.339 322.588 191.339 314.084 131.811 314.084 131.811 322.588 72.283 322.588 72.283 314.084 28.346 314.084 28.346 355.186 36.85 355.186 36.85 414.714 28.346 414.714 28.346 455.816 72.283 455.816 72.283 447.312 131.811 447.312 131.811 455.816 191.339 455.816 191.339 447.312 250.866 447.312 250.866 455.816 310.394 455.816 310.394 447.312 369.921 447.312 369.921 455.816 429.449 455.816 429.449 447.312 439 447.312 439 322.588 429.449 322.588" fill="none" stroke="#e42320" stroke-miterlimit="10" stroke-width="0.28346"/>
    <polygon points="608.031 314.084 608.031 322.588 548.504 322.588 548.504 314.084 488.976 314.084 488.976 322.588 473 322.588 473 447.312 488.976 447.312 488.976 455.816 548.504 455.816 548.504 447.312 608.031 447.312 608.031 455.816 615 455.816 615 314.084 608.031 314.084" fill="none" stroke="#e42320" stroke-miterlimit="10" stroke-width="0.28346"/>
  </g>
  <g>
    <polygon points="429.449 481.588 429.449 473.084 369.921 473.084 369.921 481.588 310.394 481.588 310.394 473.084 250.866 473.084 250.866 481.588 191.339 481.588 191.339 473.084 131.811 473.084 131.811 481.588 72.283 481.588 72.283 473.084 28.346 473.084 28.346 514.186 36.85 514.186 36.85 573.714 28.346 573.714 28.346 614.816 72.283 614.816 72.283 606.312 131.811 606.312 131.811 614.816 191.339 614.816 191.339 606.312 250.866 606.312 250.866 614.816 310.394 614.816 310.394 606.312 369.921 606.312 369.921 614.816 429.449 614.816 429.449 606.312 439 606.312 439 481.588 429.449 481.588" fill="none" stroke="#e42320" stroke-miterlimit="10" stroke-width="0.28346"/>
    <polygon points="608.031 473.084 608.031 481.588 548.504 481.588 548.504 473.084 488.976 473.084 488.976 481.588 473 481.588 473 606.312 488.976 606.312 488.976 614.816 548.504 614.816 548.504 606.312 608.031 606.312 608.031 614.816 615 614.816 615 473.084 608.031 473.084" fill="none" stroke="#e42320" stroke-miterlimit="10" stroke-width="0.28346"/>
  </g>
  <path id="left_outsideCutPath-3" data-name="left outsideCutPath" d="M1309.76409,481.69918h-43.937v-8.50393h-59.52756v8.50393H1146.772v-8.50393h-59.52756v8.50393h-59.52755v-8.50393H968.18931v8.50393H908.66175v-8.50393H849.1342v8.50393H789.60664v-8.50393H730.07909v8.50393h-43.937v32.59843H694.646v59.52755h-8.50394v32.59842h43.937v8.50394h59.52755v-8.50394H849.1342v8.50394h59.52755v-8.50394h59.52756v8.50394h59.52756v-8.50394h59.52755v8.50394H1146.772v-8.50394h59.52755v8.50394h59.52756v-8.50394h43.937V573.82516h-8.50393V514.29761h8.50393Z" fill="none" stroke="#e42320" stroke-miterlimit="10" stroke-width="0.28346"/>
</svg>
