<svg id="Laag_1" data-name="Laag 1" xmlns="http://www.w3.org/2000/svg" width="60cm" height="30cm" viewBox="0 0 1700.7874 850.3937">
  <title>Cirkel</title>
  <circle cx="850.3937" cy="425.19685" r="418.32833" fill="none" stroke="red" stroke-miterlimit="10" stroke-width="0.28346"/>
  <circle cx="851.27309" cy="273.6193" r="35.43307" fill="none" stroke="red" stroke-miterlimit="10" stroke-width="0.28346"/>
  <circle cx="851.27309" cy="196.6193" r="35.43307" fill="none" stroke="red" stroke-miterlimit="10" stroke-width="0.28346"/>
  <circle cx="851.27309" cy="119.6193" r="35.43307" fill="none" stroke="red" stroke-miterlimit="10" stroke-width="0.28346"/>
  <circle cx="851.27309" cy="46.6193" r="35.43307" fill="none" stroke="red" stroke-miterlimit="10" stroke-width="0.28346"/>
  <circle cx="777.40637" cy="292.6971" r="35.43307" fill="none" stroke="red" stroke-miterlimit="10" stroke-width="0.28346"/>
  <circle cx="740.55723" cy="225.08689" r="35.43307" fill="none" stroke="red" stroke-miterlimit="10" stroke-width="0.28346"/>
  <circle cx="703.7081" cy="157.47667" r="35.43307" fill="none" stroke="red" stroke-miterlimit="10" stroke-width="0.28346"/>
  <circle cx="668.85897" cy="91.86645" r="35.43307" fill="none" stroke="red" stroke-miterlimit="10" stroke-width="0.28346"/>
  <circle cx="723.19355" cy="345.9788" r="35.43307" fill="none" stroke="red" stroke-miterlimit="10" stroke-width="0.28346"/>
  <circle cx="658.77006" cy="303.80519" r="35.43307" fill="none" stroke="red" stroke-miterlimit="10" stroke-width="0.28346"/>
  <circle cx="594.34656" cy="261.63158" r="35.43307" fill="none" stroke="red" stroke-miterlimit="10" stroke-width="0.28346"/>
  <circle cx="529.92307" cy="223.45797" r="35.43307" fill="none" stroke="red" stroke-miterlimit="10" stroke-width="0.28346"/>
  <circle cx="488.92307" cy="307.45797" r="35.43307" fill="none" stroke="red" stroke-miterlimit="10" stroke-width="0.28346"/>
  <circle cx="558.92307" cy="328.45797" r="35.43307" fill="none" stroke="red" stroke-miterlimit="10" stroke-width="0.28346"/>
  <circle cx="597.92307" cy="148.45797" r="35.43307" fill="none" stroke="red" stroke-miterlimit="10" stroke-width="0.28346"/>
  <circle cx="646.92307" cy="206.45797" r="35.43307" fill="none" stroke="red" stroke-miterlimit="10" stroke-width="0.28346"/>
  <circle cx="754.92307" cy="58.45797" r="35.43307" fill="none" stroke="red" stroke-miterlimit="10" stroke-width="0.28346"/>
  <circle cx="775.92307" cy="131.45797" r="35.43307" fill="none" stroke="red" stroke-miterlimit="10" stroke-width="0.28346"/>
  <circle cx="696.33117" cy="416.29441" r="35.43307" fill="none" stroke="red" stroke-miterlimit="10" stroke-width="0.28346"/>
  <circle cx="619.63244" cy="409.48958" r="35.43307" fill="none" stroke="red" stroke-miterlimit="10" stroke-width="0.28346"/>
  <circle cx="544.93372" cy="402.68475" r="35.43307" fill="none" stroke="red" stroke-miterlimit="10" stroke-width="0.28346"/>
  <circle cx="470.23499" cy="397.87992" r="35.43307" fill="none" stroke="red" stroke-miterlimit="10" stroke-width="0.28346"/>
  <circle cx="925.08865" cy="291.6971" r="35.43307" fill="none" stroke="red" stroke-miterlimit="10" stroke-width="0.28346"/>
  <circle cx="961.93779" cy="224.08689" r="35.43307" fill="none" stroke="red" stroke-miterlimit="10" stroke-width="0.28346"/>
  <circle cx="996.78692" cy="158.47667" r="35.43307" fill="none" stroke="red" stroke-miterlimit="10" stroke-width="0.28346"/>
  <circle cx="1031.63605" cy="92.86645" r="35.43307" fill="none" stroke="red" stroke-miterlimit="10" stroke-width="0.28346"/>
  <circle cx="979.30147" cy="344.9788" r="35.43307" fill="none" stroke="red" stroke-miterlimit="10" stroke-width="0.28346"/>
  <circle cx="1043.72496" cy="302.80519" r="35.43307" fill="none" stroke="red" stroke-miterlimit="10" stroke-width="0.28346"/>
  <circle cx="1108.14846" cy="260.63158" r="35.43307" fill="none" stroke="red" stroke-miterlimit="10" stroke-width="0.28346"/>
  <circle cx="1170.57195" cy="220.45797" r="35.43307" fill="none" stroke="red" stroke-miterlimit="10" stroke-width="0.28346"/>
  <circle cx="1211.57195" cy="304.45797" r="35.43307" fill="none" stroke="red" stroke-miterlimit="10" stroke-width="0.28346"/>
  <circle cx="1137.57195" cy="329.45797" r="35.43307" fill="none" stroke="red" stroke-miterlimit="10" stroke-width="0.28346"/>
  <circle cx="1106.57195" cy="149.45797" r="35.43307" fill="none" stroke="red" stroke-miterlimit="10" stroke-width="0.28346"/>
  <circle cx="1055.57195" cy="205.45797" r="35.43307" fill="none" stroke="red" stroke-miterlimit="10" stroke-width="0.28346"/>
  <circle cx="945.57195" cy="59.45797" r="35.43307" fill="none" stroke="red" stroke-miterlimit="10" stroke-width="0.28346"/>
  <circle cx="926.57195" cy="130.45797" r="35.43307" fill="none" stroke="red" stroke-miterlimit="10" stroke-width="0.28346"/>
  <circle cx="1006.16385" cy="415.29441" r="35.43307" fill="none" stroke="red" stroke-miterlimit="10" stroke-width="0.28346"/>
  <circle cx="1080.86258" cy="408.48958" r="35.43307" fill="none" stroke="red" stroke-miterlimit="10" stroke-width="0.28346"/>
  <circle cx="1155.5613" cy="401.68475" r="35.43307" fill="none" stroke="red" stroke-miterlimit="10" stroke-width="0.28346"/>
  <circle cx="1230.26003" cy="394.87992" r="35.43307" fill="none" stroke="red" stroke-miterlimit="10" stroke-width="0.28346"/>
  <path d="M964.75958,418.96784a35.42779,35.42779,0,0,0-63.34479-18.50848,56.63735,56.63735,0,0,0-3.99683-6.93884,35.43316,35.43316,0,1,0-43.3515-24.88538c-1.21551-.07782-2.43762-.13122-3.67279-.13122-.56311,0-1.11987.02618-1.679.04248a35.43684,35.43684,0,1,0-45.60883,25.38525,56.62252,56.62252,0,0,0-3.39484,5.867,35.428,35.428,0,1,0-1.30279,48.0235,56.69383,56.69383,0,0,0,104.77606-1.96,35.43138,35.43138,0,0,0,61.57532-26.89429Z" fill="none" stroke="red" stroke-miterlimit="10" stroke-width="0.28346"/>
  <circle cx="807.87402" cy="425.19685" r="5.66929" fill="none" stroke="red" stroke-miterlimit="10" stroke-width="0.28346"/>
  <circle cx="892.91339" cy="425.19685" r="5.66929" fill="none" stroke="red" stroke-miterlimit="10" stroke-width="0.28346"/>
  <circle cx="850.3937" cy="467.71654" r="5.66929" fill="none" stroke="red" stroke-miterlimit="10" stroke-width="0.28346"/>
</svg>
