<?xml version="1.0" encoding="UTF-8" standalone="no"?>
<!-- Generator: Adobe Illustrator 23.0.6, SVG Export Plug-In . SVG Version: 6.00 Build 0)  -->

<svg
   version="1.1"
   id="Laag_1"
   x="0px"
   y="0px"
   viewBox="0 0 2267.7165 1133.8582"
   xml:space="preserve"
   sodipodi:docname="materie_3mm_brug_korter NEW.svg"
   width="2267.7166"
   height="1133.8583"
   inkscape:version="1.3.2 (091e20e, 2023-11-25)"
   xmlns:inkscape="http://www.inkscape.org/namespaces/inkscape"
   xmlns:sodipodi="http://sodipodi.sourceforge.net/DTD/sodipodi-0.dtd"
   xmlns="http://www.w3.org/2000/svg"
   xmlns:svg="http://www.w3.org/2000/svg"><defs
   id="defs1" />
<style
   type="text/css"
   id="style1">
	.st0{fill:none;stroke:#FF0000;stroke-width:0.286;stroke-miterlimit:10;}
</style>
<sodipodi:namedview
   bordercolor="#000000"
   borderopacity="0.25"
   id="namedview21"
   inkscape:current-layer="Laag_1"
   inkscape:cx="617.92705"
   inkscape:cy="541.71605"
   inkscape:deskcolor="#d1d1d1"
   inkscape:document-units="mm"
   inkscape:pagecheckerboard="0"
   inkscape:pageopacity="0.0"
   inkscape:showpageshadow="2"
   inkscape:window-height="817"
   inkscape:window-maximized="0"
   inkscape:window-width="1680"
   inkscape:window-x="0"
   inkscape:window-y="69"
   inkscape:zoom="0.4854942"
   pagecolor="#ffffff"
   showgrid="false">
	</sodipodi:namedview>
<title
   id="title1">materie 3mm-new</title>
<polygon
   id="polygon1"
   class="st0"
   points="833.4,169.8 824.9,169.8 824.9,183.9 816.1,183.9 816.1,169.8 807.6,169.8 807.6,184.3 759.7,183.9 759.7,169.8 751.2,169.8 751.2,183.9 742.4,183.9 742.4,169.8 733.9,169.8 733.9,183.9 683.1,184.3 683.1,169.8 674.6,169.8 674.6,183.9 665.9,183.9 665.9,169.8 657.4,169.8 657.4,184.3 606.6,184.3 606.6,169.8 598.1,169.8 598.1,183.9 589.3,183.9 589.3,169.8 580.8,169.8 580.8,184.6 0,184.3 0,212.6 30.8,212.6 30.8,198.4 39.6,198.4 39.6,326 919.1,326 919.1,198.4 927.8,198.4 927.8,212.6 958.1,212.6 958.1,184.3 907.1,183.6 907.1,169.8 898.6,169.8 898.6,183.9 889.8,183.9 889.8,169.8 881.3,169.8 881.3,183.9 833.4,183.6 "
   transform="matrix(1.3329496,0,0,1.3329496,53.601286,-54.427463)" />
</svg>
