<?xml version="1.0" encoding="UTF-8" standalone="no"?>
<svg
   id="Laag_1"
   data-name="Laag 1"
   width="600mm"
   height="300mm"
   viewBox="0 0 1700.7874 850.3937"
   version="1.1"
   sodipodi:docname="materie 3mm-burg_langer.svg"
   inkscape:version="1.3 (0e150ed, 2023-07-21)"
   xmlns:inkscape="http://www.inkscape.org/namespaces/inkscape"
   xmlns:sodipodi="http://sodipodi.sourceforge.net/DTD/sodipodi-0.dtd"
   xmlns="http://www.w3.org/2000/svg"
   xmlns:svg="http://www.w3.org/2000/svg">
  <defs
     id="defs21" />
  <sodipodi:namedview
     id="namedview21"
     pagecolor="#ffffff"
     bordercolor="#000000"
     borderopacity="0.25"
     inkscape:showpageshadow="2"
     inkscape:pageopacity="0.0"
     inkscape:pagecheckerboard="0"
     inkscape:deskcolor="#d1d1d1"
     inkscape:document-units="mm"
     inkscape:zoom="0.26497847"
     inkscape:cx="1056.6896"
     inkscape:cy="418.90196"
     inkscape:window-width="1376"
     inkscape:window-height="675"
     inkscape:window-x="0"
     inkscape:window-y="38"
     inkscape:window-maximized="0"
     inkscape:current-layer="Laag_1" />
  <title
     id="title1">materie 3mm-new</title>
  <polygon
     points="357.155,177.322 357.155,304.881 1241.882,304.881 1241.882,177.322 1250.669,177.322 1250.669,191.515 1281.13,191.515 1281.13,163.149 317.351,163.149 317.351,191.515 348.368,191.515 348.368,177.322 "
     fill="none"
     stroke="#ff0000"
     stroke-miterlimit="10"
     stroke-width="0.28346"
     id="polygon1"
     transform="matrix(1.0088219,0,0,0.99999121,-289.53182,21.154825)" />
  <polygon
     points="357.155,501.946 357.155,629.505 1241.882,629.505 1241.882,501.946 1250.669,501.946 1250.669,516.139 1281.13,516.139 1281.13,487.773 317.351,487.773 317.351,516.139 348.368,516.139 348.368,501.946 "
     fill="none"
     stroke="#ff0000"
     stroke-miterlimit="10"
     stroke-width="0.28346"
     id="polygon3"
     transform="matrix(1.0088219,0,0,0.99999121,-289.53182,21.157677)" />
  <g
     id="g5"
     transform="matrix(1.0088219,0,0,0.99999121,-289.53182,21.156177)">
    <polygon
       points="357.155,331.169 357.155,458.728 1241.882,458.728 1241.882,331.169 1250.669,331.169 1250.669,345.361 1281.13,345.361 1281.13,316.995 317.351,316.995 317.351,345.361 348.368,345.361 348.368,331.169 "
       fill="none"
       stroke="#ff0000"
       stroke-miterlimit="10"
       stroke-width="0.28346"
       id="polygon4" />
    <rect
       x="1166.162"
       y="331.16852"
       width="8.5039396"
       height="113.38583"
       transform="rotate(39.99559,1170.414,387.8615)"
       fill="none"
       stroke="#ff0000"
       stroke-miterlimit="10"
       stroke-width="0.28346"
       id="rect4" />
    <rect
       x="917.99005"
       y="331.16852"
       width="8.5039396"
       height="113.38583"
       transform="rotate(140.00441,922.242,387.86142)"
       fill="none"
       stroke="#ff0000"
       stroke-miterlimit="10"
       stroke-width="0.28346"
       id="rect5" />
  </g>
  <rect
     x="523.93799"
     y="390.94016"
     width="25.51181"
     height="68.031502"
     fill="none"
     stroke="#ff0000"
     stroke-miterlimit="10"
     stroke-width="0.28346"
     id="rect6" />
  <rect
     x="435.70068"
     y="390.94016"
     width="25.51181"
     height="68.031502"
     fill="none"
     stroke="#ff0000"
     stroke-miterlimit="10"
     stroke-width="0.28346"
     id="rect7" />
  <g
     id="g9"
     transform="matrix(1.0088219,0,0,0.99999121,-289.53182,21.153473)">
    <polygon
       points="357.155,23.476 357.155,151.035 1241.882,151.035 1241.882,23.476 1250.669,23.476 1250.669,37.669 1281.13,37.669 1281.13,9.303 317.351,9.303 317.351,37.669 348.368,37.669 348.368,23.476 "
       fill="none"
       stroke="#ff0000"
       stroke-miterlimit="10"
       stroke-width="0.28346"
       id="polygon7" />
    <rect
       x="1166.162"
       y="23.47599"
       width="8.5039396"
       height="113.38583"
       transform="rotate(39.99559,1170.414,80.16894)"
       fill="none"
       stroke="#ff0000"
       stroke-miterlimit="10"
       stroke-width="0.28346"
       id="rect8" />
    <rect
       x="917.99005"
       y="23.47599"
       width="8.5039396"
       height="113.38583"
       transform="rotate(140.00441,922.24199,80.168878)"
       fill="none"
       stroke="#ff0000"
       stroke-miterlimit="10"
       stroke-width="0.28346"
       id="rect9" />
  </g>
  <rect
     x="523.93799"
     y="83.247871"
     width="25.51181"
     height="68.031502"
     fill="none"
     stroke="#ff0000"
     stroke-miterlimit="10"
     stroke-width="0.28346"
     id="rect10" />
  <rect
     x="435.70068"
     y="83.247871"
     width="25.51181"
     height="68.031502"
     fill="none"
     stroke="#ff0000"
     stroke-miterlimit="10"
     stroke-width="0.28346"
     id="rect11" />
</svg>
