<svg id="Laag_1" data-name="Laag 1" xmlns="http://www.w3.org/2000/svg" width="60cm" height="30cm" viewBox="0 0 1700.7874 850.3937">
  <title>materie 9mm</title>
  <polygon points="13.03 11.047 13.03 39.508 27.204 39.508 27.204 25.219 35.991 25.219 35.991 166.953 92.684 166.953 92.684 11.047 13.03 11.047" fill="none" stroke="red" stroke-miterlimit="10" stroke-width="0.28346"/>
  <polygon points="101.03 11.047 101.03 39.508 115.204 39.508 115.204 25.219 123.991 25.219 123.991 166.953 180.684 166.953 180.684 11.047 101.03 11.047" fill="none" stroke="red" stroke-miterlimit="10" stroke-width="0.28346"/>
  <polygon points="189.03 11.047 189.03 39.508 203.204 39.508 203.204 25.219 211.991 25.219 211.991 166.953 268.684 166.953 268.684 11.047 189.03 11.047" fill="none" stroke="red" stroke-miterlimit="10" stroke-width="0.28346"/>
  <polygon points="277.03 11.047 277.03 39.508 291.204 39.508 291.204 25.219 299.991 25.219 299.991 166.953 356.684 166.953 356.684 11.047 277.03 11.047" fill="none" stroke="red" stroke-miterlimit="10" stroke-width="0.28346"/>
  <polygon points="9.03 181.047 9.03 209.508 23.204 209.508 23.204 195.219 31.991 195.219 31.991 336.953 88.684 336.953 88.684 181.047 9.03 181.047" fill="none" stroke="red" stroke-miterlimit="10" stroke-width="0.28346"/>
  <polygon points="97.03 181.047 97.03 209.508 111.204 209.508 111.204 195.219 119.991 195.219 119.991 336.953 176.684 336.953 176.684 181.047 97.03 181.047" fill="none" stroke="red" stroke-miterlimit="10" stroke-width="0.28346"/>
  <polygon points="185.03 181.047 185.03 209.508 199.204 209.508 199.204 195.219 207.991 195.219 207.991 336.953 264.684 336.953 264.684 181.047 185.03 181.047" fill="none" stroke="red" stroke-miterlimit="10" stroke-width="0.28346"/>
  <polygon points="273.03 181.047 273.03 209.508 287.204 209.508 287.204 195.219 295.991 195.219 295.991 336.953 352.684 336.953 352.684 181.047 273.03 181.047" fill="none" stroke="red" stroke-miterlimit="10" stroke-width="0.28346"/>
  <polygon points="128.65 366.984 117.312 366.984 117.312 349.976 32.272 349.976 32.272 366.984 20.934 366.984 20.934 435.016 32.272 435.016 32.272 452.024 117.312 452.024 117.312 435.016 128.65 435.016 128.65 366.984" fill="none" stroke="red" stroke-miterlimit="10" stroke-width="0.28346"/>
  <polygon points="256.781 366.984 245.442 366.984 245.442 349.976 160.403 349.976 160.403 366.984 149.064 366.984 149.064 435.016 160.403 435.016 160.403 452.024 245.442 452.024 245.442 435.016 256.781 435.016 256.781 366.984" fill="none" stroke="red" stroke-miterlimit="10" stroke-width="0.28346"/>
  <g>
    <rect x="377.41873" y="11.36996" width="1190.55118" height="170.07874" fill="none" stroke="#e42320" stroke-miterlimit="10" stroke-width="0.28346"/>
    <polygon points="524.82 158.772 492.222 158.772 492.222 167.275 533.324 167.275 533.324 126.173 524.82 126.173 524.82 158.772" fill="none" stroke="#e42320" stroke-miterlimit="10" stroke-width="0.28346"/>
    <polygon points="400.096 158.772 400.096 126.173 391.592 126.173 391.592 167.275 432.694 167.275 432.694 158.772 400.096 158.772" fill="none" stroke="#e42320" stroke-miterlimit="10" stroke-width="0.28346"/>
    <polygon points="400.096 34.047 432.694 34.047 432.694 25.543 391.592 25.543 391.592 66.646 400.096 66.646 400.096 34.047" fill="none" stroke="#e42320" stroke-miterlimit="10" stroke-width="0.28346"/>
    <polygon points="492.222 25.543 492.222 34.047 524.82 34.047 524.82 66.646 533.324 66.646 533.324 25.543 492.222 25.543" fill="none" stroke="#e42320" stroke-miterlimit="10" stroke-width="0.28346"/>
    <g>
      <polygon points="1545.293 158.772 1512.694 158.772 1512.694 167.275 1553.797 167.275 1553.797 126.173 1545.293 126.173 1545.293 158.772" fill="none" stroke="#e42320" stroke-miterlimit="10" stroke-width="0.28346"/>
      <polygon points="1420.568 158.772 1420.568 126.173 1412.064 126.173 1412.064 167.275 1453.167 167.275 1453.167 158.772 1420.568 158.772" fill="none" stroke="#e42320" stroke-miterlimit="10" stroke-width="0.28346"/>
      <polygon points="1420.568 34.047 1453.167 34.047 1453.167 25.543 1412.064 25.543 1412.064 66.646 1420.568 66.646 1420.568 34.047" fill="none" stroke="#e42320" stroke-miterlimit="10" stroke-width="0.28346"/>
      <polygon points="1512.694 25.543 1512.694 34.047 1545.293 34.047 1545.293 66.646 1553.797 66.646 1553.797 25.543 1512.694 25.543" fill="none" stroke="#e42320" stroke-miterlimit="10" stroke-width="0.28346"/>
    </g>
  </g>
</svg>
