<svg id="Laag_1" data-name="Laag 1" xmlns="http://www.w3.org/2000/svg" width="60cm" height="30cm" viewBox="0 0 1700.7874 850.3937">
  <title>materie 9mm</title>
  <polygon points="13.03 11.047 13.03 39.508 27.204 39.508 27.204 25.219 35.991 25.219 35.991 166.953 92.684 166.953 92.684 11.047 13.03 11.047" fill="none" stroke="red" stroke-miterlimit="10" stroke-width="0.28346"/>
  <polygon points="101.03 11.047 101.03 39.508 115.204 39.508 115.204 25.219 123.991 25.219 123.991 166.953 180.684 166.953 180.684 11.047 101.03 11.047" fill="none" stroke="red" stroke-miterlimit="10" stroke-width="0.28346"/>
  <polygon points="189.03 11.047 189.03 39.508 203.204 39.508 203.204 25.219 211.991 25.219 211.991 166.953 268.684 166.953 268.684 11.047 189.03 11.047" fill="none" stroke="red" stroke-miterlimit="10" stroke-width="0.28346"/>
  <polygon points="277.03 11.047 277.03 39.508 291.204 39.508 291.204 25.219 299.991 25.219 299.991 166.953 356.684 166.953 356.684 11.047 277.03 11.047" fill="none" stroke="red" stroke-miterlimit="10" stroke-width="0.28346"/>
  <polygon points="365.03 11.047 365.03 39.508 379.204 39.508 379.204 25.219 387.991 25.219 387.991 166.953 444.684 166.953 444.684 11.047 365.03 11.047" fill="none" stroke="red" stroke-miterlimit="10" stroke-width="0.28346"/>
  <polygon points="453.03 11.047 453.03 39.508 467.204 39.508 467.204 25.219 475.991 25.219 475.991 166.953 532.684 166.953 532.684 11.047 453.03 11.047" fill="none" stroke="red" stroke-miterlimit="10" stroke-width="0.28346"/>
  <polygon points="541.03 11.047 541.03 39.508 555.204 39.508 555.204 25.219 563.991 25.219 563.991 166.953 620.684 166.953 620.684 11.047 541.03 11.047" fill="none" stroke="red" stroke-miterlimit="10" stroke-width="0.28346"/>
  <polygon points="629.03 11.047 629.03 39.508 643.204 39.508 643.204 25.219 651.991 25.219 651.991 166.953 708.684 166.953 708.684 11.047 629.03 11.047" fill="none" stroke="red" stroke-miterlimit="10" stroke-width="0.28346"/>
  <polygon points="120.65 198.984 109.312 198.984 109.312 181.976 24.272 181.976 24.272 198.984 12.934 198.984 12.934 267.016 24.272 267.016 24.272 284.024 109.312 284.024 109.312 267.016 120.65 267.016 120.65 198.984" fill="none" stroke="red" stroke-miterlimit="10" stroke-width="0.28346"/>
  <polygon points="248.781 198.984 237.442 198.984 237.442 181.976 152.403 181.976 152.403 198.984 141.064 198.984 141.064 267.016 152.403 267.016 152.403 284.024 237.442 284.024 237.442 267.016 248.781 267.016 248.781 198.984" fill="none" stroke="red" stroke-miterlimit="10" stroke-width="0.28346"/>
</svg>
