<svg id="Laag_1" data-name="Laag 1" xmlns="http://www.w3.org/2000/svg" width="600mm" height="300mm" viewBox="0 0 1700.7874 850.3937">
  <title>materie 3mm-new</title>
  <polygon points="317.351 163.149 317.351 191.515 348.368 191.515 348.368 177.322 357.155 177.322 357.155 304.881 1241.882 304.881 1241.882 177.322 1250.669 177.322 1250.669 191.515 1281.13 191.515 1281.13 163.149 317.351 163.149" fill="none" stroke="red" stroke-miterlimit="10" stroke-width="0.28346"/>
  <polygon points="147.235 41.901 133.062 41.901 133.062 9.303 48.022 9.303 48.022 41.901 33.849 41.901 33.849 149.618 48.022 149.618 48.022 182.216 133.062 182.216 133.062 149.618 147.235 149.618 147.235 41.901" fill="none" stroke="red" stroke-miterlimit="10" stroke-width="0.28346"/>
  <polygon points="317.351 487.773 317.351 516.139 348.368 516.139 348.368 501.946 357.155 501.946 357.155 629.505 1241.882 629.505 1241.882 501.946 1250.669 501.946 1250.669 516.139 1281.13 516.139 1281.13 487.773 317.351 487.773" fill="none" stroke="red" stroke-miterlimit="10" stroke-width="0.28346"/>
  <g>
    <polygon points="317.351 316.995 317.351 345.361 348.368 345.361 348.368 331.169 357.155 331.169 357.155 458.728 1241.882 458.728 1241.882 331.169 1250.669 331.169 1250.669 345.361 1281.13 345.361 1281.13 316.995 317.351 316.995" fill="none" stroke="red" stroke-miterlimit="10" stroke-width="0.28346"/>
    <rect x="1166.16199" y="331.16853" width="8.50394" height="113.38583" transform="translate(523.05666 -661.53546) rotate(39.99559)" fill="none" stroke="red" stroke-miterlimit="10" stroke-width="0.28346"/>
    <rect x="917.99003" y="331.16853" width="8.50394" height="113.38583" transform="translate(1878.05563 92.24834) rotate(140.00441)" fill="none" stroke="red" stroke-miterlimit="10" stroke-width="0.28346"/>
  </g>
  <rect x="810.67077" y="372.62299" width="25.51181" height="68.0315" fill="none" stroke="red" stroke-miterlimit="10" stroke-width="0.28346"/>
  <rect x="722.43346" y="372.62088" width="25.51181" height="68.0315" fill="none" stroke="red" stroke-miterlimit="10" stroke-width="0.28346"/>
  <g>
    <polygon points="317.351 9.303 317.351 37.669 348.368 37.669 348.368 23.476 357.155 23.476 357.155 151.035 1241.882 151.035 1241.882 23.476 1250.669 23.476 1250.669 37.669 1281.13 37.669 1281.13 9.303 317.351 9.303" fill="none" stroke="red" stroke-miterlimit="10" stroke-width="0.28346"/>
    <rect x="1166.16199" y="23.47599" width="8.50394" height="113.38583" transform="translate(325.29384 -733.50663) rotate(39.99559)" fill="none" stroke="red" stroke-miterlimit="10" stroke-width="0.28346"/>
    <rect x="917.99003" y="23.47599" width="8.50394" height="113.38583" transform="translate(1680.29281 -451.16558) rotate(140.00441)" fill="none" stroke="red" stroke-miterlimit="10" stroke-width="0.28346"/>
  </g>
  <rect x="810.67077" y="64.93045" width="25.51181" height="68.0315" fill="none" stroke="red" stroke-miterlimit="10" stroke-width="0.28346"/>
  <rect x="722.43346" y="64.92833" width="25.51181" height="68.0315" fill="none" stroke="red" stroke-miterlimit="10" stroke-width="0.28346"/>
  <polygon points="272.531 41.901 258.358 41.901 258.358 9.303 173.318 9.303 173.318 41.901 159.145 41.901 159.145 149.618 173.318 149.618 173.318 182.216 258.358 182.216 258.358 149.618 272.531 149.618 272.531 41.901" fill="none" stroke="red" stroke-miterlimit="10" stroke-width="0.28346"/>
  <polygon points="1402.638 50.108 1388.465 50.108 1388.465 17.51 1303.425 17.51 1303.425 50.108 1289.252 50.108 1289.252 157.825 1303.425 157.825 1303.425 190.423 1388.465 190.423 1388.465 157.825 1402.638 157.825 1402.638 50.108" fill="none" stroke="red" stroke-miterlimit="10" stroke-width="0.28346"/>
  <polygon points="1527.934 50.108 1513.76 50.108 1513.76 17.51 1428.721 17.51 1428.721 50.108 1414.548 50.108 1414.548 157.825 1428.721 157.825 1428.721 190.423 1513.76 190.423 1513.76 157.825 1527.934 157.825 1527.934 50.108" fill="none" stroke="red" stroke-miterlimit="10" stroke-width="0.28346"/>
  <polygon points="17.354 682.376 17.354 838.282 31.527 838.282 31.527 696.549 40.031 696.549 40.031 838.282 110.897 838.282 110.897 696.549 119.401 696.549 119.401 838.282 133.574 838.282 133.574 682.376 17.354 682.376" fill="none" stroke="red" stroke-miterlimit="10" stroke-width="0.28346"/>
  <polygon points="147.235 682.376 147.235 838.282 161.408 838.282 161.408 696.549 169.912 696.549 169.912 838.282 240.778 838.282 240.778 696.549 249.282 696.549 249.282 838.282 263.455 838.282 263.455 682.376 147.235 682.376" fill="none" stroke="red" stroke-miterlimit="10" stroke-width="0.28346"/>
  <polygon points="24.184 516.47 24.184 672.376 38.357 672.376 38.357 530.644 46.861 530.644 46.861 672.376 117.728 672.376 117.728 530.643 126.231 530.643 126.231 672.376 140.405 672.376 140.405 516.47 24.184 516.47" fill="none" stroke="red" stroke-miterlimit="10" stroke-width="0.28346"/>
  <polygon points="154.065 516.47 154.065 672.376 168.238 672.376 168.238 530.644 176.742 530.644 176.742 672.376 247.608 672.376 247.608 530.643 256.112 530.643 256.112 672.376 270.286 672.376 270.286 516.47 154.065 516.47" fill="none" stroke="red" stroke-miterlimit="10" stroke-width="0.28346"/>
  <polygon points="20.769 350.565 20.769 506.47 34.942 506.47 34.942 364.738 43.446 364.738 43.446 506.47 114.312 506.47 114.312 364.737 122.816 364.737 122.816 506.47 136.99 506.47 136.99 350.565 20.769 350.565" fill="none" stroke="red" stroke-miterlimit="10" stroke-width="0.28346"/>
  <polygon points="150.65 350.565 150.65 506.47 164.823 506.47 164.823 364.738 173.327 364.738 173.327 506.47 244.193 506.47 244.193 364.737 252.697 364.737 252.697 506.47 266.87 506.47 266.87 350.565 150.65 350.565" fill="none" stroke="red" stroke-miterlimit="10" stroke-width="0.28346"/>
  <polygon points="20.769 188.438 20.769 344.343 34.942 344.343 34.942 202.611 43.446 202.611 43.446 344.343 114.312 344.343 114.312 202.61 122.816 202.61 122.816 344.343 136.99 344.343 136.99 188.438 20.769 188.438" fill="none" stroke="red" stroke-miterlimit="10" stroke-width="0.28346"/>
  <polygon points="150.65 188.438 150.65 344.343 164.823 344.343 164.823 202.611 173.327 202.611 173.327 344.343 244.193 344.343 244.193 202.61 252.697 202.61 252.697 344.343 266.87 344.343 266.87 188.438 150.65 188.438" fill="none" stroke="red" stroke-miterlimit="10" stroke-width="0.28346"/>
</svg>
