<?xml version="1.0" encoding="UTF-8" standalone="no"?>
<!-- Created with Inkscape (http://www.inkscape.org/) -->

<svg
   width="600mm"
   height="300mm"
   viewBox="0 0 600 300"
   version="1.1"
   id="svg1"
   inkscape:version="1.3.2 (091e20e, 2023-11-25, custom)"
   xml:space="preserve"
   sodipodi:docname="Cirkel-team01.svg"
   xmlns:inkscape="http://www.inkscape.org/namespaces/inkscape"
   xmlns:sodipodi="http://sodipodi.sourceforge.net/DTD/sodipodi-0.dtd"
   xmlns="http://www.w3.org/2000/svg"
   xmlns:svg="http://www.w3.org/2000/svg"><sodipodi:namedview
     id="namedview1"
     pagecolor="#ffffff"
     bordercolor="#eeeeee"
     borderopacity="1"
     inkscape:showpageshadow="0"
     inkscape:pageopacity="0"
     inkscape:pagecheckerboard="0"
     inkscape:deskcolor="#505050"
     inkscape:document-units="mm"
     inkscape:zoom="0.75141666"
     inkscape:cx="517.68881"
     inkscape:cy="616.83487"
     inkscape:window-width="1920"
     inkscape:window-height="1001"
     inkscape:window-x="-9"
     inkscape:window-y="-9"
     inkscape:window-maximized="1"
     inkscape:current-layer="g104"
     showgrid="false" /><defs
     id="defs1"><marker
       id="DistanceX"
       orient="auto"
       refX="0.0"
       refY="0.0"
       style="overflow:visible"><path
         d="M 3,-3 L -3,3 M 0,-5 L  0,5"
         style="stroke:#000000; stroke-width:0.5"
         id="path1" /></marker><pattern
       id="Hatch"
       patternUnits="userSpaceOnUse"
       width="8"
       height="8"
       x="0"
       y="0"><path
         d="M8 4 l-4,4"
         stroke="#000000"
         stroke-width="0.25"
         linecap="square"
         id="path2" /><path
         d="M6 2 l-4,4"
         stroke="#000000"
         stroke-width="0.25"
         linecap="square"
         id="path3" /><path
         d="M4 0 l-4,4"
         stroke="#000000"
         stroke-width="0.25"
         linecap="square"
         id="path4" /></pattern><symbol
       id="*MODEL_SPACE" /><symbol
       id="*PAPER_SPACE" /></defs><g
     inkscape:label="Layer 1"
     inkscape:groupmode="layer"
     id="layer1"><g
       id="g1"
       transform="matrix(0.26458333,0,0,0.26458333,149.82494,-147.17305)"
       style="stroke:#ff0000;stroke-width:0.377953;stroke-dasharray:none;stroke-opacity:1"><g
         inkscape:label="0"
         id="g4"
         style="stroke:#ff0000;stroke-width:0.377953;stroke-dasharray:none;stroke-opacity:1" /><g
         inkscape:label="SECTION_CUTTING_LINE"
         id="g5"
         style="stroke:#ff0000;stroke-width:0.377953;stroke-dasharray:none;stroke-opacity:1" /><g
         inkscape:label="DETAIL_VIEW_BORDER"
         id="g6"
         style="stroke:#ff0000;stroke-width:0.377953;stroke-dasharray:none;stroke-opacity:1" /><g
         inkscape:label="DETAIL_VIEW_PARENT_BORDER"
         id="g7"
         style="stroke:#ff0000;stroke-width:0.377953;stroke-dasharray:none;stroke-opacity:1" /><g
         inkscape:label="TEXT"
         id="g8"
         style="stroke:#ff0000;stroke-width:0.377953;stroke-dasharray:none;stroke-opacity:1" /><g
         inkscape:label="SKETCHED_GEOMETRY"
         id="g9"
         style="stroke:#ff0000;stroke-width:0.377953;stroke-dasharray:none;stroke-opacity:1" /><g
         inkscape:label="VIRTUAL_SHARPS"
         id="g10"
         style="stroke:#ff0000;stroke-width:0.377953;stroke-dasharray:none;stroke-opacity:1" /><g
         inkscape:label="CENTERLINES"
         id="g11"
         style="stroke:#ff0000;stroke-width:0.377953;stroke-dasharray:none;stroke-opacity:1" /><g
         inkscape:label="CENTERMARKS"
         id="g12"
         style="stroke:#ff0000;stroke-width:0.377953;stroke-dasharray:none;stroke-opacity:1" /><g
         inkscape:label="TABLES"
         id="g13"
         style="stroke:#ff0000;stroke-width:0.377953;stroke-dasharray:none;stroke-opacity:1" /><g
         inkscape:label="IMAGES"
         id="g14"
         style="stroke:#ff0000;stroke-width:0.377953;stroke-dasharray:none;stroke-opacity:1" /><g
         inkscape:label="ANNOTATION_LINES"
         id="g15"
         style="stroke:#ff0000;stroke-width:0.377953;stroke-dasharray:none;stroke-opacity:1" /><g
         inkscape:label="ANNOTATION_TEXT"
         id="g16"
         style="stroke:#ff0000;stroke-width:0.377953;stroke-dasharray:none;stroke-opacity:1" /><g
         inkscape:label="SIDE_THREAD_SYMBOLS"
         id="g17"
         style="stroke:#ff0000;stroke-width:0.377953;stroke-dasharray:none;stroke-opacity:1" /><g
         inkscape:label="SIDE_THREAD_SYMBOLS_HIDDEN"
         id="g18"
         style="stroke:#ff0000;stroke-width:0.377953;stroke-dasharray:none;stroke-opacity:1" /><g
         inkscape:label="SURFACE_THREAD_SYMBOLS"
         id="g19"
         style="stroke:#ff0000;stroke-width:0.377953;stroke-dasharray:none;stroke-opacity:1" /><g
         inkscape:label="SURFACE_THREAD_SYMBOLS_ON_"
         id="g20"
         style="stroke:#ff0000;stroke-width:0.377953;stroke-dasharray:none;stroke-opacity:1" /><g
         inkscape:label="SURFACE_THREAD_SYMBOLS_HID"
         id="g21"
         style="stroke:#ff0000;stroke-width:0.377953;stroke-dasharray:none;stroke-opacity:1" /><g
         inkscape:label="BLIND_THREAD_SYMBOLS"
         id="g22"
         style="stroke:#ff0000;stroke-width:0.377953;stroke-dasharray:none;stroke-opacity:1" /><g
         inkscape:label="BLIND_THREAD_SYMBOLS_HIDDE"
         id="g23"
         style="stroke:#ff0000;stroke-width:0.377953;stroke-dasharray:none;stroke-opacity:1" /><g
         inkscape:label="EXPLODE_LINES"
         id="g24"
         style="stroke:#ff0000;stroke-width:0.377953;stroke-dasharray:none;stroke-opacity:1" /><g
         inkscape:label="HIDDEN_EXPLODE_LINES"
         id="g25"
         style="stroke:#ff0000;stroke-width:0.377953;stroke-dasharray:none;stroke-opacity:1" /><g
         inkscape:label="BREAK_LINES"
         id="g26"
         style="stroke:#ff0000;stroke-width:0.377953;stroke-dasharray:none;stroke-opacity:1" /><g
         inkscape:label="SHEETMETAL_BEND_LINES_UP"
         id="g27"
         style="stroke:#ff0000;stroke-width:0.377953;stroke-dasharray:none;stroke-opacity:1" /><g
         inkscape:label="SHEETMETAL_BEND_LINES_DOWN"
         id="g28"
         style="stroke:#ff0000;stroke-width:0.377953;stroke-dasharray:none;stroke-opacity:1" /><g
         inkscape:label="SHEETMETAL_BEND_TANGENT_LI"
         id="g29"
         style="stroke:#ff0000;stroke-width:0.377953;stroke-dasharray:none;stroke-opacity:1" /><g
         inkscape:label="SHEETMETAL_CUT_LINES"
         id="g30"
         style="stroke:#ff0000;stroke-width:0.377953;stroke-dasharray:none;stroke-opacity:1" /><g
         inkscape:label="REGION_ASSOC_POINTS"
         id="g31"
         style="stroke:#ff0000;stroke-width:0.377953;stroke-dasharray:none;stroke-opacity:1" /><g
         inkscape:label="PATTERN_CENTERLINES"
         id="g32"
         style="stroke:#ff0000;stroke-width:0.377953;stroke-dasharray:none;stroke-opacity:1" /><g
         inkscape:label="HIDDEN"
         id="g33"
         style="stroke:#ff0000;stroke-width:0.377953;stroke-dasharray:none;stroke-opacity:1" /><g
         inkscape:label="VISIBLE"
         id="g104"
         style="stroke:#ff0000;stroke-width:0.377953;stroke-dasharray:none;stroke-opacity:1"><path
           d="m 374.95495,1226.9329 a 47.244094,47.244094 0 0 0 -94.48818,0 47.244094,47.244094 0 0 0 94.48818,0 z"
           style="fill:none;stroke:#ff0000;stroke-width:0.377953;stroke-dasharray:none;stroke-opacity:1"
           id="path33" /><path
           d="m 145.80698,1023.3154 a 47.244095,47.244095 0 0 0 -94.488184,0 47.244095,47.244095 0 0 0 94.488184,0 z"
           style="fill:none;stroke:#ff0000;stroke-width:0.377953;stroke-dasharray:none;stroke-opacity:1"
           id="path34" /><path
           d="m 46.790551,982.67716 a 47.244095,47.244095 0 0 0 -94.488189,0 47.244095,47.244095 0 0 0 94.488189,0 z"
           style="fill:none;stroke:#ff0000;stroke-width:0.377953;stroke-dasharray:none;stroke-opacity:1"
           id="path35" /><path
           d="m -51.960203,1023.9568 a 47.244095,47.244095 0 0 0 -94.488187,0 47.244095,47.244095 0 0 0 94.488187,0 z"
           style="fill:none;stroke:#ff0000;stroke-width:0.377953;stroke-dasharray:none;stroke-opacity:1"
           id="path36" /><path
           d="m -92.598425,1122.9732 a 47.244094,47.244094 0 0 0 -94.488185,0 47.244094,47.244094 0 0 0 94.488185,0 z"
           style="fill:none;stroke:#ff0000;stroke-width:0.377953;stroke-dasharray:none;stroke-opacity:1"
           id="path37" /><path
           d="m -51.318796,1221.724 a 47.244095,47.244095 0 0 0 -94.488184,0 47.244095,47.244095 0 0 0 94.488184,0 z"
           style="fill:none;stroke:#ff0000;stroke-width:0.377953;stroke-dasharray:none;stroke-opacity:1"
           id="path38" /><path
           d="m 47.697638,1262.3622 a 47.244095,47.244095 0 0 0 -94.488189,0 47.244095,47.244095 0 0 0 94.488189,0 z"
           style="fill:none;stroke:#ff0000;stroke-width:0.377953;stroke-dasharray:none;stroke-opacity:1"
           id="path39" /><path
           d="m 146.44839,1221.0826 a 47.244095,47.244095 0 0 0 -94.488187,0 47.244095,47.244095 0 0 0 94.488187,0 z"
           style="fill:none;stroke:#ff0000;stroke-width:0.377953;stroke-dasharray:none;stroke-opacity:1"
           id="path40" /><path
           d="m 250.9952,1399.6154 a 47.244095,47.244095 0 0 0 -94.48819,0 47.244095,47.244095 0 0 0 94.48819,0 z"
           style="fill:none;stroke:#ff0000;stroke-width:0.377953;stroke-dasharray:none;stroke-opacity:1"
           id="path41" /><path
           d="m 326.65019,1323.0908 a 47.244095,47.244095 0 0 0 -94.48819,0 47.244095,47.244095 0 0 0 94.48819,0 z"
           style="fill:none;stroke:#ff0000;stroke-width:0.377953;stroke-dasharray:none;stroke-opacity:1"
           id="path42" /><path
           d="m 155.39564,1449.0159 a 47.244095,47.244095 0 0 0 -94.488191,0 47.244095,47.244095 0 0 0 94.488191,0 z"
           style="fill:none;stroke:#ff0000;stroke-width:0.377953;stroke-dasharray:none;stroke-opacity:1"
           id="path43" /><path
           d="m 49.209449,1466.4567 a 47.244095,47.244095 0 0 0 -94.488189,0 47.244095,47.244095 0 0 0 94.488189,0 z"
           style="fill:none;stroke:#ff0000;stroke-width:0.377953;stroke-dasharray:none;stroke-opacity:1"
           id="path44" /><path
           d="m -279.25211,1230.6712 a 47.244095,47.244095 0 0 0 -94.48819,0 47.244095,47.244095 0 0 0 94.48819,0 z"
           style="fill:none;stroke:#ff0000;stroke-width:0.377953;stroke-dasharray:none;stroke-opacity:1"
           id="path45" /><path
           d="m -229.85158,1326.2708 a 47.244095,47.244095 0 0 0 -94.48819,0 47.244095,47.244095 0 0 0 94.48819,0 z"
           style="fill:none;stroke:#ff0000;stroke-width:0.377953;stroke-dasharray:none;stroke-opacity:1"
           id="path46" /><path
           d="m -153.327,1401.9258 a 47.244095,47.244095 0 0 0 -94.48819,0 47.244095,47.244095 0 0 0 94.48819,0 z"
           style="fill:none;stroke:#ff0000;stroke-width:0.377953;stroke-dasharray:none;stroke-opacity:1"
           id="path47" /><path
           d="m -57.169123,1450.2305 a 47.244094,47.244094 0 0 0 -94.488187,0 47.244094,47.244094 0 0 0 94.488187,0 z"
           style="fill:none;stroke:#ff0000;stroke-width:0.377953;stroke-dasharray:none;stroke-opacity:1"
           id="path48" /><path
           d="m 391.1811,1120.5543 a 47.244095,47.244095 0 0 0 -94.48819,0 47.244095,47.244095 0 0 0 94.48819,0 z"
           style="fill:none;stroke:#ff0000;stroke-width:0.377953;stroke-dasharray:none;stroke-opacity:1"
           id="path49" /><path
           d="m 519.68504,1120.5543 a 47.244095,47.244095 0 0 0 -94.48819,0 47.244095,47.244095 0 0 0 94.48819,0 z"
           style="fill:none;stroke:#ff0000;stroke-width:0.377953;stroke-dasharray:none;stroke-opacity:1"
           id="path50" /><path
           d="m 198.84662,1311.0093 a 47.244095,47.244095 0 0 0 -94.48819,0 47.244095,47.244095 0 0 0 94.48819,0 z"
           style="fill:none;stroke:#ff0000;stroke-width:0.377953;stroke-dasharray:none;stroke-opacity:1"
           id="path51" /><path
           d="m 265.61584,1226.5651 a 47.244095,47.244095 0 0 0 -94.48819,0 47.244095,47.244095 0 0 0 94.48819,0 z"
           style="fill:none;stroke:#ff0000;stroke-width:0.377953;stroke-dasharray:none;stroke-opacity:1"
           id="path52" /><path
           d="m 102.05066,1358.1209 a 47.244095,47.244095 0 0 0 -94.488186,0 47.244095,47.244095 0 0 0 94.488186,0 z"
           style="fill:none;stroke:#ff0000;stroke-width:0.377953;stroke-dasharray:none;stroke-opacity:1"
           id="path53" /><path
           d="m -5.600409,1358.5687 a 47.244095,47.244095 0 0 0 -94.488191,0 47.244095,47.244095 0 0 0 94.488191,0 z"
           style="fill:none;stroke:#ff0000;stroke-width:0.377953;stroke-dasharray:none;stroke-opacity:1"
           id="path54" /><path
           d="m -170.25445,1228.3783 a 47.244095,47.244095 0 0 0 -94.48819,0 47.244095,47.244095 0 0 0 94.48819,0 z"
           style="fill:none;stroke:#ff0000;stroke-width:0.377953;stroke-dasharray:none;stroke-opacity:1"
           id="path55" /><path
           d="m -102.78498,1312.2641 a 47.244095,47.244095 0 0 0 -94.48819,0 47.244095,47.244095 0 0 0 94.48819,0 z"
           style="fill:none;stroke:#ff0000;stroke-width:0.377953;stroke-dasharray:none;stroke-opacity:1"
           id="path56" /><path
           d="m -7.562474,886.91852 a 47.244095,47.244095 0 0 0 -94.488186,0 47.244095,47.244095 0 0 0 94.488186,0 z"
           style="fill:none;stroke:#ff0000;stroke-width:0.377953;stroke-dasharray:none;stroke-opacity:1"
           id="path57" /><path
           d="m -104.35843,934.03005 a 47.244095,47.244095 0 0 0 -94.48819,0 47.244095,47.244095 0 0 0 94.48819,0 z"
           style="fill:none;stroke:#ff0000;stroke-width:0.377953;stroke-dasharray:none;stroke-opacity:1"
           id="path58" /><path
           d="m -171.12765,1018.4743 a 47.244095,47.244095 0 0 0 -94.48819,0 47.244095,47.244095 0 0 0 94.48819,0 z"
           style="fill:none;stroke:#ff0000;stroke-width:0.377953;stroke-dasharray:none;stroke-opacity:1"
           id="path59" /><path
           d="m -194.64567,1123.5259 a 47.244095,47.244095 0 0 0 -94.48819,0 47.244095,47.244095 0 0 0 94.48819,0 z"
           style="fill:none;stroke:#ff0000;stroke-width:0.377953;stroke-dasharray:none;stroke-opacity:1"
           id="path60" /><path
           d="m 289.13386,1121.5134 a 47.244095,47.244095 0 0 0 -94.48819,0 47.244095,47.244095 0 0 0 94.48819,0 z"
           style="fill:none;stroke:#ff0000;stroke-width:0.377953;stroke-dasharray:none;stroke-opacity:1"
           id="path61" /><path
           d="m 264.74264,1016.661 a 47.244095,47.244095 0 0 0 -94.48819,0 47.244095,47.244095 0 0 0 94.48819,0 z"
           style="fill:none;stroke:#ff0000;stroke-width:0.377953;stroke-dasharray:none;stroke-opacity:1"
           id="path62" /><path
           d="m 197.27317,932.77526 a 47.244095,47.244095 0 0 0 -94.48819,0 47.244095,47.244095 0 0 0 94.48819,0 z"
           style="fill:none;stroke:#ff0000;stroke-width:0.377953;stroke-dasharray:none;stroke-opacity:1"
           id="path63" /><path
           d="m 100.0886,886.47069 a 47.244095,47.244095 0 0 0 -94.488191,0 47.244095,47.244095 0 0 0 94.488191,0 z"
           style="fill:none;stroke:#ff0000;stroke-width:0.377953;stroke-dasharray:none;stroke-opacity:1"
           id="path64" /><path
           d="m -76.931006,666.68545 a 47.244095,47.244095 0 0 0 -94.488184,0 47.244095,47.244095 0 0 0 94.488184,0 z"
           style="fill:none;stroke:#ff0000;stroke-width:0.377953;stroke-dasharray:none;stroke-opacity:1"
           id="path65" /><path
           d="m -190.67842,714.3565 a 47.244095,47.244095 0 0 0 -94.48819,0 47.244095,47.244095 0 0 0 94.48819,0 z"
           style="fill:none;stroke:#ff0000;stroke-width:0.377953;stroke-dasharray:none;stroke-opacity:1"
           id="path66" /><path
           d="m -288.21182,789.8432 a 47.244095,47.244095 0 0 0 -94.48819,0 47.244095,47.244095 0 0 0 94.48819,0 z"
           style="fill:none;stroke:#ff0000;stroke-width:0.377953;stroke-dasharray:none;stroke-opacity:1"
           id="path67" /><path
           d="m -362.88444,888.00126 a 47.244095,47.244095 0 0 0 -94.48819,0 47.244095,47.244095 0 0 0 94.48819,0 z"
           style="fill:none;stroke:#ff0000;stroke-width:0.377953;stroke-dasharray:none;stroke-opacity:1"
           id="path68" /><path
           d="m -409.60749,1002.1414 a 47.244095,47.244095 0 0 0 -94.48819,0 47.244095,47.244095 0 0 0 94.48819,0 z"
           style="fill:none;stroke:#ff0000;stroke-width:0.377953;stroke-dasharray:none;stroke-opacity:1"
           id="path69" /><path
           d="m -425.19685,1124.485 a 47.244095,47.244095 0 0 0 -94.48819,0 47.244095,47.244095 0 0 0 94.48819,0 z"
           style="fill:none;stroke:#ff0000;stroke-width:0.377953;stroke-dasharray:none;stroke-opacity:1"
           id="path70" /><path
           d="m -408.59014,1246.6948 a 47.244095,47.244095 0 0 0 -94.48819,0 47.244095,47.244095 0 0 0 94.48819,0 z"
           style="fill:none;stroke:#ff0000;stroke-width:0.377953;stroke-dasharray:none;stroke-opacity:1"
           id="path71" /><path
           d="m -360.91909,1360.4422 a 47.244095,47.244095 0 0 0 -94.48819,0 47.244095,47.244095 0 0 0 94.48819,0 z"
           style="fill:none;stroke:#ff0000;stroke-width:0.377953;stroke-dasharray:none;stroke-opacity:1"
           id="path72" /><path
           d="m -285.43239,1457.9756 a 47.244094,47.244094 0 0 0 -94.48818,0 47.244094,47.244094 0 0 0 94.48818,0 z"
           style="fill:none;stroke:#ff0000;stroke-width:0.377953;stroke-dasharray:none;stroke-opacity:1"
           id="path73" /><path
           d="m -187.27433,1532.6482 a 47.244095,47.244095 0 0 0 -94.48819,0 47.244095,47.244095 0 0 0 94.48819,0 z"
           style="fill:none;stroke:#ff0000;stroke-width:0.377953;stroke-dasharray:none;stroke-opacity:1"
           id="path74" /><path
           d="m -73.134233,1579.3713 a 47.244095,47.244095 0 0 0 -94.488187,0 47.244095,47.244095 0 0 0 94.488187,0 z"
           style="fill:none;stroke:#ff0000;stroke-width:0.377953;stroke-dasharray:none;stroke-opacity:1"
           id="path75" /><path
           d="m 49.209449,1594.9606 a 47.244095,47.244095 0 0 0 -94.488189,0 47.244095,47.244095 0 0 0 94.488189,0 z"
           style="fill:none;stroke:#ff0000;stroke-width:0.377953;stroke-dasharray:none;stroke-opacity:1"
           id="path76" /><path
           d="m 171.41919,1578.3539 a 47.244095,47.244095 0 0 0 -94.488184,0 47.244095,47.244095 0 0 0 94.488184,0 z"
           style="fill:none;stroke:#ff0000;stroke-width:0.377953;stroke-dasharray:none;stroke-opacity:1"
           id="path77" /><path
           d="m 285.16661,1530.6829 a 47.244095,47.244095 0 0 0 -94.48819,0 47.244095,47.244095 0 0 0 94.48819,0 z"
           style="fill:none;stroke:#ff0000;stroke-width:0.377953;stroke-dasharray:none;stroke-opacity:1"
           id="path78" /><path
           d="m 382.70001,1455.1962 a 47.244095,47.244095 0 0 0 -94.48819,0 47.244095,47.244095 0 0 0 94.48819,0 z"
           style="fill:none;stroke:#ff0000;stroke-width:0.377953;stroke-dasharray:none;stroke-opacity:1"
           id="path79" /><path
           d="m 457.37263,1357.0381 a 47.244095,47.244095 0 0 0 -94.48819,0 47.244095,47.244095 0 0 0 94.48819,0 z"
           style="fill:none;stroke:#ff0000;stroke-width:0.377953;stroke-dasharray:none;stroke-opacity:1"
           id="path80" /><path
           d="m -296.69291,1124.485 a 47.244095,47.244095 0 0 0 -94.48819,0 47.244095,47.244095 0 0 0 94.48819,0 z"
           style="fill:none;stroke:#ff0000;stroke-width:0.377953;stroke-dasharray:none;stroke-opacity:1"
           id="path81" /><path
           d="m -280.46677,1018.1065 a 47.244094,47.244094 0 0 0 -94.48818,0 47.244094,47.244094 0 0 0 94.48818,0 z"
           style="fill:none;stroke:#ff0000;stroke-width:0.377953;stroke-dasharray:none;stroke-opacity:1"
           id="path82" /><path
           d="m -156.50701,845.42401 a 47.244095,47.244095 0 0 0 -94.48819,0 47.244095,47.244095 0 0 0 94.48819,0 z"
           style="fill:none;stroke:#ff0000;stroke-width:0.377953;stroke-dasharray:none;stroke-opacity:1"
           id="path83" /><path
           d="m -232.162,921.94859 a 47.244095,47.244095 0 0 0 -94.48819,0 47.244095,47.244095 0 0 0 94.48819,0 z"
           style="fill:none;stroke:#ff0000;stroke-width:0.377953;stroke-dasharray:none;stroke-opacity:1"
           id="path84" /><path
           d="m -60.907449,796.02348 a 47.244096,47.244096 0 0 0 -94.488191,0 47.244096,47.244096 0 0 0 94.488191,0 z"
           style="fill:none;stroke:#ff0000;stroke-width:0.377953;stroke-dasharray:none;stroke-opacity:1"
           id="path85" /><path
           d="m 45.27874,778.58268 a 47.244095,47.244095 0 0 0 -94.488189,0 47.244095,47.244095 0 0 0 94.488189,0 z"
           style="fill:none;stroke:#ff0000;stroke-width:0.377953;stroke-dasharray:none;stroke-opacity:1"
           id="path86" /><path
           d="m 151.65731,794.80882 a 47.244094,47.244094 0 0 0 -94.488187,0 47.244094,47.244094 0 0 0 94.488187,0 z"
           style="fill:none;stroke:#ff0000;stroke-width:0.377953;stroke-dasharray:none;stroke-opacity:1"
           id="path87" /><path
           d="m 247.81519,843.11359 a 47.244095,47.244095 0 0 0 -94.48819,0 47.244095,47.244095 0 0 0 94.48819,0 z"
           style="fill:none;stroke:#ff0000;stroke-width:0.377953;stroke-dasharray:none;stroke-opacity:1"
           id="path88" /><path
           d="m 455.40728,884.59717 a 47.244095,47.244095 0 0 0 -94.48819,0 47.244095,47.244095 0 0 0 94.48819,0 z"
           style="fill:none;stroke:#ff0000;stroke-width:0.377953;stroke-dasharray:none;stroke-opacity:1"
           id="path89" /><path
           d="m 503.07833,998.34458 a 47.244095,47.244095 0 0 0 -94.48819,0 47.244095,47.244095 0 0 0 94.48819,0 z"
           style="fill:none;stroke:#ff0000;stroke-width:0.377953;stroke-dasharray:none;stroke-opacity:1"
           id="path90" /><path
           d="m 373.7403,1014.3681 a 47.244095,47.244095 0 0 0 -94.48819,0 47.244095,47.244095 0 0 0 94.48819,0 z"
           style="fill:none;stroke:#ff0000;stroke-width:0.377953;stroke-dasharray:none;stroke-opacity:1"
           id="path91" /><path
           d="m 324.33977,918.76858 a 47.244095,47.244095 0 0 0 -94.48819,0 47.244095,47.244095 0 0 0 94.48819,0 z"
           style="fill:none;stroke:#ff0000;stroke-width:0.377953;stroke-dasharray:none;stroke-opacity:1"
           id="path92" /><path
           d="m 379.92057,787.06377 a 47.244094,47.244094 0 0 0 -94.48818,0 47.244094,47.244094 0 0 0 94.48818,0 z"
           style="fill:none;stroke:#ff0000;stroke-width:0.377953;stroke-dasharray:none;stroke-opacity:1"
           id="path93" /><path
           d="m 281.76252,712.39115 a 47.244095,47.244095 0 0 0 -94.48819,0 47.244095,47.244095 0 0 0 94.48819,0 z"
           style="fill:none;stroke:#ff0000;stroke-width:0.377953;stroke-dasharray:none;stroke-opacity:1"
           id="path94" /><path
           d="m 167.62242,665.6681 a 47.244095,47.244095 0 0 0 -94.488187,0 47.244095,47.244095 0 0 0 94.488187,0 z"
           style="fill:none;stroke:#ff0000;stroke-width:0.377953;stroke-dasharray:none;stroke-opacity:1"
           id="path95" /><path
           d="m 45.27874,650.07874 a 47.244095,47.244095 0 0 0 -94.488189,0 47.244095,47.244095 0 0 0 94.488189,0 z"
           style="fill:none;stroke:#ff0000;stroke-width:0.377953;stroke-dasharray:none;stroke-opacity:1"
           id="path96" /><path
           d="m 187.08661,1122.0661 a 47.244094,47.244094 0 0 0 -94.488185,0 47.244094,47.244094 0 0 0 94.488185,0 z"
           style="fill:none;stroke:#ff0000;stroke-width:0.377953;stroke-dasharray:none;stroke-opacity:1"
           id="path97" /><path
           d="m 504.09568,1242.898 a 47.244095,47.244095 0 0 0 -94.48819,0 47.244095,47.244095 0 0 0 94.48819,0 z"
           style="fill:none;stroke:#ff0000;stroke-width:0.377953;stroke-dasharray:none;stroke-opacity:1"
           id="path98" /><path
           d="m -49.133858,1122.5197 a 7.5590555,7.5590555 0 0 0 -15.118111,0 7.5590555,7.5590555 0 0 0 15.118111,0 z"
           style="fill:none;stroke:#ff0000;stroke-width:0.377953;stroke-dasharray:none;stroke-opacity:1"
           id="path99" /><path
           d="m 7.559055,1179.2126 a 7.559055,7.559055 0 0 0 -15.11811,0 7.559055,7.559055 0 0 0 15.11811,0 z"
           style="fill:none;stroke:#ff0000;stroke-width:0.377953;stroke-dasharray:none;stroke-opacity:1"
           id="path100" /><path
           d="m 7.559055,1065.8268 a 7.559055,7.559055 0 0 0 -15.11811,0 7.559055,7.559055 0 0 0 15.11811,0 z"
           style="fill:none;stroke:#ff0000;stroke-width:0.377953;stroke-dasharray:none;stroke-opacity:1"
           id="path101" /><path
           d="m 7.559055,1122.5197 a 7.559055,7.559055 0 0 0 -15.11811,0 7.559055,7.559055 0 0 0 15.11811,0 z"
           style="fill:none;stroke:#ff0000;stroke-width:0.377953;stroke-dasharray:none;stroke-opacity:1"
           id="path102" /><path
           d="m 557.48032,1122.5197 a 557.48032,557.48032 0 0 0 -1114.96064,0 557.48032,557.48032 0 0 0 1114.96064,0 z"
           style="fill:none;stroke:#ff0000;stroke-width:0.377953;stroke-dasharray:none;stroke-opacity:1"
           id="path103" /><path
           d="m 64.251969,1122.5197 a 7.5590555,7.5590555 0 0 0 -15.118111,0 7.5590555,7.5590555 0 0 0 15.118111,0 z"
           style="fill:none;stroke:#ff0000;stroke-width:0.377953;stroke-dasharray:none;stroke-opacity:1"
           id="path104" /></g><g
         inkscape:label="MODELSKETCH_VISIBLE"
         id="g105"
         style="stroke:#ff0000;stroke-width:0.377953;stroke-dasharray:none;stroke-opacity:1" /><g
         inkscape:label="MODELSKETCH_POINT"
         id="g106"
         style="stroke:#ff0000;stroke-width:0.377953;stroke-dasharray:none;stroke-opacity:1" /><g
         inkscape:label="MODELSKETCH_CONSTRUCTION"
         id="g107"
         style="stroke:#ff0000;stroke-width:0.377953;stroke-dasharray:none;stroke-opacity:1" /><g
         inkscape:label="HIDDEN_BASE_VIEW"
         id="g108"
         style="stroke:#ff0000;stroke-width:0.377953;stroke-dasharray:none;stroke-opacity:1" /><g
         inkscape:label="TANGENT_LINES"
         id="g109"
         style="stroke:#ff0000;stroke-width:0.377953;stroke-dasharray:none;stroke-opacity:1" /><g
         inkscape:label="TANGENT_HIDDEN"
         id="g110"
         style="stroke:#ff0000;stroke-width:0.377953;stroke-dasharray:none;stroke-opacity:1" /><g
         inkscape:label="INVISIBLE_LINES"
         id="g111"
         style="stroke:#ff0000;stroke-width:0.377953;stroke-dasharray:none;stroke-opacity:1" /><g
         inkscape:label="VIEW_HATCHES"
         id="g112"
         style="stroke:#ff0000;stroke-width:0.377953;stroke-dasharray:none;stroke-opacity:1" /><g
         inkscape:label="SECTION_JOG_LINES"
         id="g113"
         style="stroke:#ff0000;stroke-width:0.377953;stroke-dasharray:none;stroke-opacity:1" /></g><path
       d="m 162.38862,139.22193 a 1.95,1.95 0 0 0 -3.9,0 1.95,1.95 0 0 0 3.9,0 z"
       style="fill:none;stroke:#ff0000;stroke-width:0.1;stroke-dasharray:none;stroke-opacity:1"
       id="path619" /><path
       d="m 141.17542,139.22193 a 1.95,1.95 0 0 0 -3.9,0 1.95,1.95 0 0 0 3.9,0 z"
       style="fill:none;stroke:#ff0000;stroke-width:0.1;stroke-dasharray:none;stroke-opacity:1"
       id="path623" /><path
       d="m 141.17542,160.43514 a 1.95,1.95 0 0 0 -3.9,0 1.95,1.95 0 0 0 3.9,0 z"
       style="fill:none;stroke:#ff0000;stroke-width:0.1;stroke-dasharray:none;stroke-opacity:1"
       id="path625" /><path
       d="m 297.33202,149.82855 a 147.5,147.5 0 0 0 -294.9999878,0 147.5,147.5 0 0 0 294.9999878,0 z"
       style="fill:none;stroke:#ff0000;stroke-width:0.1;stroke-dasharray:none;stroke-opacity:1"
       id="path627" /><path
       d="m 162.38862,160.43514 a 1.95,1.95 0 0 0 -3.9,0 1.95,1.95 0 0 0 3.9,0 z"
       style="fill:none;stroke:#ff0000;stroke-width:0.1;stroke-dasharray:none;stroke-opacity:1"
       id="path631" /></g></svg>
